This is season 4 of The Biggest Loser Australia (2009).... COMPLETE with all 74 episodes. Season 5 (AU), and Season 9 (US) are being broadcast right now... so if you're one of those people who just can't get enough of The biggest Loser, here you go! 

I am an American, and had only seen the US version of this show, so I was surprised to see the AU version had so many episodes. If you are thinking the same.. not to worry, the Australian episodes are broken up, so instead of a single very long episode, they have shorter episodes that air much more often. I think they air between 5 to 7 episodes/week (please correct me if I'm wrong on this). 

I am not the original creator of this torrent (thank you, to the person who is!), but thought I would share the love. :o)

These are very good quality HDTV rips. As of today, I have watched the first 6 episodes and found no issues whatsoever. 

Enjoy!

-=Sample Media Info=-

Format                           : AVI
Format/Info                      : Audio Video Interleave
File size                        : 500 MiB
Duration                         : 47mn 4s
Overall bit rate                 : 1 485 Kbps
Writing application              : VirtualDubMod 1.5.4.1 (build 2178/release)
Writing library                  : VirtualDubMod build 2178/release

Video
ID                               : 0
Format                           : MPEG-4 Visual
Format profile                   : Advanced Simple@L5
Format settings, BVOP            : Yes
Format settings, QPel            : No
Format settings, GMC             : No warppoints
Format settings, Matrix          : Custom
Codec ID                         : XVID
Codec ID/Hint                    : XviD
Duration                         : 47mn 4s
Bit rate                         : 1 361 Kbps
Width                            : 624 pixels
Height                           : 352 pixels
Display aspect ratio             : 16:9
Frame rate                       : 25.000 fps
Resolution                       : 8 bits
Colorimetry                      : 4:2:0
Scan type                        : Progressive
Bits/(Pixel*Frame)               : 0.248
Stream size                      : 458 MiB (92%)
Writing library                  : XviD 1.2.1 (UTC 2008-12-04)

Audio
ID                               : 1
Format                           : MPEG Audio
Format version                   : Version 1
Format profile                   : Layer 3
Mode                             : Joint stereo
Format_Settings_ModeExtension    : MS Stereo
Codec ID                         : 55
Codec ID/Hint                    : MP3
Duration                         : 47mn 4s
Bit rate mode                    : Variable
Bit rate                         : 111 Kbps
Nominal bit rate                 : 128 Kbps
Channel(s)                       : 2 channels
Sampling rate                    : 48.0 KHz
Stream size                      : 37.3 MiB (7%)
Alignment                        : Aligned on interleaves
Interleave, duration             : 24 ms (0.60 video frame)
Interleave, preload duration     : 346 ms
Writing library                  : LAME3.98r

